<svg width="26" height="30" viewBox="0 0 26 30" fill="none" xmlns="http://www.w3.org/2000/svg">
<path d="M25.7783 22.0107C25.0752 23.5723 24.7364 24.2704 23.832 25.6486C22.5659 27.5745 20.7801 29.9794 18.5739 29.9947C16.6097 30.0125 16.1028 28.7133 13.4355 28.7362C10.7708 28.7489 10.2154 30.0201 8.24874 29.9998C6.04003 29.9794 4.35102 27.814 3.08489 25.8906C-0.456181 20.4975 -0.830668 14.1745 1.35766 10.8117C2.90656 8.42724 5.35474 7.0261 7.65517 7.0261C9.9989 7.0261 11.4714 8.3126 13.4075 8.3126C15.2876 8.3126 16.4314 7.02355 19.142 7.02355C21.1902 7.02355 23.3556 8.13937 24.9045 10.0653C19.84 12.8421 20.6629 20.0746 25.7783 22.0107ZM17.0836 4.87088C18.0695 3.60476 18.8185 1.81894 18.5459 0C16.9384 0.109544 15.0583 1.1362 13.9603 2.46601C12.9642 3.67864 12.1388 5.4772 12.4598 7.21716C14.2151 7.27321 16.0315 6.22617 17.0836 4.87088Z" fill="black"/>
</svg>
