<svg width="27" height="27" viewBox="0 0 27 27" fill="none" xmlns="http://www.w3.org/2000/svg">
<path d="M26.7374 10.856H25.65V10.8H13.5V16.2H21.1295C20.0165 19.3435 17.0255 21.6 13.5 21.6C9.02678 21.6 5.4 17.9732 5.4 13.5C5.4 9.02678 9.02678 5.4 13.5 5.4C15.5648 5.4 17.4433 6.17895 18.8737 7.45132L22.6922 3.63285C20.281 1.38577 17.0559 0 13.5 0C6.04463 0 0 6.04463 0 13.5C0 20.9554 6.04463 27 13.5 27C20.9554 27 27 20.9554 27 13.5C27 12.5948 26.9069 11.7113 26.7374 10.856Z" fill="#FBC02D"/>
<path d="M1.55655 7.21643L5.99197 10.4693C7.19212 7.4979 10.0987 5.4 13.5 5.4C15.5648 5.4 17.4433 6.17895 18.8737 7.45133L22.6921 3.63285C20.281 1.38578 17.0559 0 13.5 0C8.31465 0 3.8178 2.92748 1.55655 7.21643Z" fill="#E53935"/>
<path d="M13.5 26.9999C16.9871 26.9999 20.1555 25.6654 22.5511 23.4953L18.3728 19.9596C17.0174 20.9863 15.3326 21.5999 13.5 21.5999C9.98865 21.5999 7.00718 19.3609 5.88398 16.2363L1.48163 19.6282C3.71588 24.0002 8.25323 26.9999 13.5 26.9999Z" fill="#4CAF50"/>
<path d="M26.7374 10.8558L26.7266 10.7998H25.65H13.5V16.1998H21.1295C20.5949 17.7098 19.6236 19.0119 18.3708 19.9602L18.3728 19.9589L22.5511 23.4945C22.2554 23.7632 27 20.2498 27 13.4998C27 12.5946 26.9068 11.7111 26.7374 10.8558Z" fill="#1565C0"/>
</svg>
